<svg width="40" height="80" viewBox="0 0 40 80" fill="none" xmlns="http://www.w3.org/2000/svg">
<mask id="path-1-inside-1_28_87" fill="white">
<path d="M0 80C5.25287 80 10.4543 78.9654 15.3073 76.9552C20.1604 74.945 24.5699 71.9986 28.2843 68.2843C31.9986 64.5699 34.945 60.1604 36.9552 55.3073C38.9654 50.4543 40 45.2529 40 40C40 34.7471 38.9654 29.5457 36.9552 24.6927C34.945 19.8396 31.9986 15.4301 28.2843 11.7157C24.5699 8.00138 20.1604 5.05501 15.3073 3.04482C10.4543 1.03463 5.25287 -2.2961e-07 0 0V14.7552C3.3152 14.7552 6.59794 15.4081 9.66078 16.6768C12.7236 17.9455 15.5066 19.805 17.8508 22.1492C20.195 24.4934 22.0545 27.2764 23.3232 30.3392C24.5919 33.4021 25.2448 36.6848 25.2448 40C25.2448 43.3152 24.5919 46.5979 23.3232 49.6608C22.0545 52.7236 20.195 55.5066 17.8508 57.8508C15.5066 60.195 12.7236 62.0545 9.66078 63.3232C6.59794 64.5919 3.3152 65.2448 0 65.2448V80Z"/>
</mask>
<path d="M0 80C5.25287 80 10.4543 78.9654 15.3073 76.9552C20.1604 74.945 24.5699 71.9986 28.2843 68.2843C31.9986 64.5699 34.945 60.1604 36.9552 55.3073C38.9654 50.4543 40 45.2529 40 40C40 34.7471 38.9654 29.5457 36.9552 24.6927C34.945 19.8396 31.9986 15.4301 28.2843 11.7157C24.5699 8.00138 20.1604 5.05501 15.3073 3.04482C10.4543 1.03463 5.25287 -2.2961e-07 0 0V14.7552C3.3152 14.7552 6.59794 15.4081 9.66078 16.6768C12.7236 17.9455 15.5066 19.805 17.8508 22.1492C20.195 24.4934 22.0545 27.2764 23.3232 30.3392C24.5919 33.4021 25.2448 36.6848 25.2448 40C25.2448 43.3152 24.5919 46.5979 23.3232 49.6608C22.0545 52.7236 20.195 55.5066 17.8508 57.8508C15.5066 60.195 12.7236 62.0545 9.66078 63.3232C6.59794 64.5919 3.3152 65.2448 0 65.2448V80Z" stroke="#FF6F61" stroke-width="20" mask="url(#path-1-inside-1_28_87)"/>
</svg>
