<svg width="54" height="82" viewBox="0 0 54 82" fill="none" xmlns="http://www.w3.org/2000/svg">
<path d="M1.79896 30.1543C0.253131 28.6085 0.253131 26.1022 1.79896 24.5564L24.4853 1.87003C26.0311 0.324206 28.5374 0.324206 30.0832 1.87003C31.6291 3.41586 31.6291 5.92213 30.0832 7.46796L7.39688 30.1543C5.85106 31.7001 3.34478 31.7001 1.79896 30.1543Z" fill="#FFC300"/>
<path d="M52.7696 30.1543C51.2237 31.7001 48.7175 31.7001 47.1716 30.1543L24.4853 7.46796C22.9395 5.92214 22.9395 3.41586 24.4853 1.87003C26.0311 0.324206 28.5374 0.324206 30.0832 1.87003L52.7696 24.5564C54.3154 26.1022 54.3154 28.6085 52.7696 30.1543Z" fill="#FFC300"/>
<path d="M1.79896 55.0832C0.253131 53.5374 0.253131 51.0311 1.79896 49.4853L24.4853 26.799C26.0311 25.2531 28.5374 25.2531 30.0832 26.799C31.6291 28.3448 31.6291 30.8511 30.0832 32.3969L7.39688 55.0832C5.85106 56.6291 3.34478 56.6291 1.79896 55.0832Z" fill="#FFC300"/>
<path d="M52.7696 55.0832C51.2237 56.6291 48.7175 56.6291 47.1716 55.0832L24.4853 32.3969C22.9395 30.8511 22.9395 28.3448 24.4853 26.799C26.0311 25.2531 28.5374 25.2531 30.0832 26.799L52.7696 49.4853C54.3154 51.0311 54.3154 53.5374 52.7696 55.0832Z" fill="#FFC300"/>
<path d="M1.79896 80.0122C0.253131 78.4663 0.253131 75.9601 1.79896 74.4142L24.4853 51.7279C26.0311 50.1821 28.5374 50.1821 30.0832 51.7279C31.6291 53.2737 31.6291 55.78 30.0832 57.3258L7.39688 80.0122C5.85106 81.558 3.34478 81.558 1.79896 80.0122Z" fill="#FFC300"/>
<path d="M52.7696 80.0122C51.2237 81.558 48.7175 81.558 47.1716 80.0122L24.4853 57.3258C22.9395 55.78 22.9395 53.2737 24.4853 51.7279C26.0311 50.1821 28.5374 50.1821 30.0832 51.7279L52.7696 74.4142C54.3154 75.9601 54.3154 78.4663 52.7696 80.0122Z" fill="#FFC300"/>
</svg>
